<svg xmlns="http://www.w3.org/2000/svg" width="300" height="300" viewBox="0 0 300 300" font-family="-apple-system, 'PingFang SC', 'Hiragino Sans GB', 'Microsoft YaHei', 'Noto Sans CJK SC', 'Source Han Sans SC', 'Segoe UI', Roboto, Helvetica, Arial, sans-serif">
<circle cx="150" cy="150" r="122" fill="none" stroke="#d9c4a0" stroke-width="1.1" opacity="0.22"/>
<circle cx="150" cy="150" r="96" fill="none" stroke="#d9c4a0" stroke-width="1.3" opacity="0.45"/>
<circle cx="150" cy="150" r="66" fill="none" stroke="#d9c4a0" stroke-width="1.4" opacity="0.7"/>
<line x1="150.0" y1="28.0" x2="150.0" y2="16.0" stroke="#d9c4a0" stroke-width="1.6" opacity="0.55"/>
<line x1="160.6" y1="28.5" x2="161.2" y2="22.5" stroke="#d9c4a0" stroke-width="1" opacity="0.55"/>
<line x1="171.2" y1="29.9" x2="172.2" y2="23.9" stroke="#d9c4a0" stroke-width="1" opacity="0.55"/>
<line x1="181.6" y1="32.2" x2="183.1" y2="26.4" stroke="#d9c4a0" stroke-width="1" opacity="0.54"/>
<line x1="191.7" y1="35.4" x2="193.8" y2="29.7" stroke="#d9c4a0" stroke-width="1" opacity="0.53"/>
<line x1="201.6" y1="39.4" x2="204.1" y2="34.0" stroke="#d9c4a0" stroke-width="1" opacity="0.52"/>
<line x1="211.0" y1="44.3" x2="214.0" y2="39.1" stroke="#d9c4a0" stroke-width="1" opacity="0.51"/>
<line x1="220.0" y1="50.1" x2="223.4" y2="45.1" stroke="#d9c4a0" stroke-width="1" opacity="0.50"/>
<line x1="228.4" y1="56.5" x2="232.3" y2="51.9" stroke="#d9c4a0" stroke-width="1" opacity="0.49"/>
<line x1="236.3" y1="63.7" x2="244.8" y2="55.2" stroke="#d9c4a0" stroke-width="1.6" opacity="0.47"/>
<line x1="243.5" y1="71.6" x2="248.1" y2="67.7" stroke="#d9c4a0" stroke-width="1" opacity="0.45"/>
<line x1="249.9" y1="80.0" x2="254.9" y2="76.6" stroke="#d9c4a0" stroke-width="1" opacity="0.43"/>
<line x1="255.7" y1="89.0" x2="260.9" y2="86.0" stroke="#d9c4a0" stroke-width="1" opacity="0.41"/>
<line x1="260.6" y1="98.4" x2="266.0" y2="95.9" stroke="#d9c4a0" stroke-width="1" opacity="0.39"/>
<line x1="264.6" y1="108.3" x2="270.3" y2="106.2" stroke="#d9c4a0" stroke-width="1" opacity="0.37"/>
<line x1="267.8" y1="118.4" x2="273.6" y2="116.9" stroke="#d9c4a0" stroke-width="1" opacity="0.35"/>
<line x1="270.1" y1="128.8" x2="276.1" y2="127.8" stroke="#d9c4a0" stroke-width="1" opacity="0.32"/>
<line x1="271.5" y1="139.4" x2="277.5" y2="138.8" stroke="#d9c4a0" stroke-width="1" opacity="0.30"/>
<line x1="272.0" y1="150.0" x2="284.0" y2="150.0" stroke="#d9c4a0" stroke-width="1.6" opacity="0.28"/>
<line x1="271.5" y1="160.6" x2="277.5" y2="161.2" stroke="#d9c4a0" stroke-width="1" opacity="0.25"/>
<line x1="270.1" y1="171.2" x2="276.1" y2="172.2" stroke="#d9c4a0" stroke-width="1" opacity="0.23"/>
<line x1="267.8" y1="181.6" x2="273.6" y2="183.1" stroke="#d9c4a0" stroke-width="1" opacity="0.20"/>
<line x1="264.6" y1="191.7" x2="270.3" y2="193.8" stroke="#d9c4a0" stroke-width="1" opacity="0.18"/>
<line x1="260.6" y1="201.6" x2="266.0" y2="204.1" stroke="#d9c4a0" stroke-width="1" opacity="0.16"/>
<line x1="255.7" y1="211.0" x2="260.9" y2="214.0" stroke="#d9c4a0" stroke-width="1" opacity="0.14"/>
<line x1="249.9" y1="220.0" x2="254.9" y2="223.4" stroke="#d9c4a0" stroke-width="1" opacity="0.12"/>
<line x1="243.5" y1="228.4" x2="248.1" y2="232.3" stroke="#d9c4a0" stroke-width="1" opacity="0.10"/>
<line x1="236.3" y1="236.3" x2="244.8" y2="244.8" stroke="#d9c4a0" stroke-width="1.6" opacity="0.08"/>
<line x1="228.4" y1="243.5" x2="232.3" y2="248.1" stroke="#d9c4a0" stroke-width="1" opacity="0.06"/>
<line x1="220.0" y1="249.9" x2="223.4" y2="254.9" stroke="#d9c4a0" stroke-width="1" opacity="0.05"/>
<line x1="211.0" y1="255.7" x2="214.0" y2="260.9" stroke="#d9c4a0" stroke-width="1" opacity="0.05"/>
<line x1="201.6" y1="260.6" x2="204.1" y2="266.0" stroke="#d9c4a0" stroke-width="1" opacity="0.05"/>
<line x1="191.7" y1="264.6" x2="193.8" y2="270.3" stroke="#d9c4a0" stroke-width="1" opacity="0.05"/>
<line x1="181.6" y1="267.8" x2="183.1" y2="273.6" stroke="#d9c4a0" stroke-width="1" opacity="0.05"/>
<line x1="171.2" y1="270.1" x2="172.2" y2="276.1" stroke="#d9c4a0" stroke-width="1" opacity="0.05"/>
<line x1="160.6" y1="271.5" x2="161.2" y2="277.5" stroke="#d9c4a0" stroke-width="1" opacity="0.05"/>
<line x1="150.0" y1="272.0" x2="150.0" y2="284.0" stroke="#d9c4a0" stroke-width="1.6" opacity="0.05"/>
<line x1="139.4" y1="271.5" x2="138.8" y2="277.5" stroke="#d9c4a0" stroke-width="1" opacity="0.05"/>
<line x1="128.8" y1="270.1" x2="127.8" y2="276.1" stroke="#d9c4a0" stroke-width="1" opacity="0.05"/>
<line x1="118.4" y1="267.8" x2="116.9" y2="273.6" stroke="#d9c4a0" stroke-width="1" opacity="0.05"/>
<line x1="108.3" y1="264.6" x2="106.2" y2="270.3" stroke="#d9c4a0" stroke-width="1" opacity="0.05"/>
<line x1="98.4" y1="260.6" x2="95.9" y2="266.0" stroke="#d9c4a0" stroke-width="1" opacity="0.05"/>
<line x1="89.0" y1="255.7" x2="86.0" y2="260.9" stroke="#d9c4a0" stroke-width="1" opacity="0.05"/>
<line x1="80.0" y1="249.9" x2="76.6" y2="254.9" stroke="#d9c4a0" stroke-width="1" opacity="0.05"/>
<line x1="71.6" y1="243.5" x2="67.7" y2="248.1" stroke="#d9c4a0" stroke-width="1" opacity="0.06"/>
<line x1="63.7" y1="236.3" x2="55.2" y2="244.8" stroke="#d9c4a0" stroke-width="1.6" opacity="0.08"/>
<line x1="56.5" y1="228.4" x2="51.9" y2="232.3" stroke="#d9c4a0" stroke-width="1" opacity="0.10"/>
<line x1="50.1" y1="220.0" x2="45.1" y2="223.4" stroke="#d9c4a0" stroke-width="1" opacity="0.12"/>
<line x1="44.3" y1="211.0" x2="39.1" y2="214.0" stroke="#d9c4a0" stroke-width="1" opacity="0.14"/>
<line x1="39.4" y1="201.6" x2="34.0" y2="204.1" stroke="#d9c4a0" stroke-width="1" opacity="0.16"/>
<line x1="35.4" y1="191.7" x2="29.7" y2="193.8" stroke="#d9c4a0" stroke-width="1" opacity="0.18"/>
<line x1="32.2" y1="181.6" x2="26.4" y2="183.1" stroke="#d9c4a0" stroke-width="1" opacity="0.20"/>
<line x1="29.9" y1="171.2" x2="23.9" y2="172.2" stroke="#d9c4a0" stroke-width="1" opacity="0.23"/>
<line x1="28.5" y1="160.6" x2="22.5" y2="161.2" stroke="#d9c4a0" stroke-width="1" opacity="0.25"/>
<line x1="28.0" y1="150.0" x2="16.0" y2="150.0" stroke="#d9c4a0" stroke-width="1.6" opacity="0.27"/>
<line x1="28.5" y1="139.4" x2="22.5" y2="138.8" stroke="#d9c4a0" stroke-width="1" opacity="0.30"/>
<line x1="29.9" y1="128.8" x2="23.9" y2="127.8" stroke="#d9c4a0" stroke-width="1" opacity="0.32"/>
<line x1="32.2" y1="118.4" x2="26.4" y2="116.9" stroke="#d9c4a0" stroke-width="1" opacity="0.35"/>
<line x1="35.4" y1="108.3" x2="29.7" y2="106.2" stroke="#d9c4a0" stroke-width="1" opacity="0.37"/>
<line x1="39.4" y1="98.4" x2="34.0" y2="95.9" stroke="#d9c4a0" stroke-width="1" opacity="0.39"/>
<line x1="44.3" y1="89.0" x2="39.1" y2="86.0" stroke="#d9c4a0" stroke-width="1" opacity="0.41"/>
<line x1="50.1" y1="80.0" x2="45.1" y2="76.6" stroke="#d9c4a0" stroke-width="1" opacity="0.43"/>
<line x1="56.5" y1="71.6" x2="51.9" y2="67.7" stroke="#d9c4a0" stroke-width="1" opacity="0.45"/>
<line x1="63.7" y1="63.7" x2="55.2" y2="55.2" stroke="#d9c4a0" stroke-width="1.6" opacity="0.47"/>
<line x1="71.6" y1="56.5" x2="67.7" y2="51.9" stroke="#d9c4a0" stroke-width="1" opacity="0.49"/>
<line x1="80.0" y1="50.1" x2="76.6" y2="45.1" stroke="#d9c4a0" stroke-width="1" opacity="0.50"/>
<line x1="89.0" y1="44.3" x2="86.0" y2="39.1" stroke="#d9c4a0" stroke-width="1" opacity="0.51"/>
<line x1="98.4" y1="39.4" x2="95.9" y2="34.0" stroke="#d9c4a0" stroke-width="1" opacity="0.52"/>
<line x1="108.3" y1="35.4" x2="106.2" y2="29.7" stroke="#d9c4a0" stroke-width="1" opacity="0.53"/>
<line x1="118.4" y1="32.2" x2="116.9" y2="26.4" stroke="#d9c4a0" stroke-width="1" opacity="0.54"/>
<line x1="128.8" y1="29.9" x2="127.8" y2="23.9" stroke="#d9c4a0" stroke-width="1" opacity="0.55"/>
<line x1="139.4" y1="28.5" x2="138.8" y2="22.5" stroke="#d9c4a0" stroke-width="1" opacity="0.55"/>
<polygon points="187.7,72.7 158.1,153.9 141.9,146.1" fill="#d9c4a0" opacity="0.95"/>
<polygon points="119.3,212.9 158.1,153.9 141.9,146.1" fill="none" stroke="#9fb2d4" stroke-width="1.3" opacity="0.8"/>
<circle cx="150" cy="150" r="5.5" fill="#bfa775"/>
<circle cx="150" cy="150" r="11" fill="none" stroke="#d9c4a0" stroke-width="1.2" opacity="0.7"/>
<circle cx="232" cy="196" r="2.4" fill="#9fb2d4" opacity="0.5"/>
<circle cx="60" cy="214" r="2.4" fill="#9fb2d4" opacity="0.42"/>
<circle cx="250" cy="150" r="2.4" fill="#9fb2d4" opacity="0.35"/>
<circle cx="40" cy="150" r="2.4" fill="#9fb2d4" opacity="0.3"/>
<circle cx="210" cy="250" r="2.4" fill="#9fb2d4" opacity="0.22"/>
<circle cx="96" cy="256" r="2.4" fill="#9fb2d4" opacity="0.2"/>
<circle cx="150" cy="270" r="2.4" fill="#9fb2d4" opacity="0.16"/>
<circle cx="270" cy="220" r="2.4" fill="#9fb2d4" opacity="0.14"/>
<line x1="36" y1="242" x2="264" y2="242" stroke="#9fb2d4" stroke-width="1" opacity="0.12"/>
<line x1="36" y1="252" x2="264" y2="252" stroke="#9fb2d4" stroke-width="1" opacity="0.09"/>
<line x1="36" y1="262" x2="264" y2="262" stroke="#9fb2d4" stroke-width="1" opacity="0.06"/>
</svg>
