<svg xmlns="http://www.w3.org/2000/svg" width="740" height="470" viewBox="0 0 740 470" font-family="-apple-system, 'PingFang SC', 'Hiragino Sans GB', 'Microsoft YaHei', 'Noto Sans CJK SC', 'Source Han Sans SC', 'Segoe UI', Roboto, Helvetica, Arial, sans-serif">
<rect x="0.0" y="0.0" width="740.0" height="470.0" rx="8" fill="#ffffff" stroke="none" stroke-width="1.5" opacity="1.0"/>
<text x="370.0" y="32.0" font-family="-apple-system, 'PingFang SC', 'Hiragino Sans GB', 'Microsoft YaHei', 'Noto Sans CJK SC', 'Source Han Sans SC', 'Segoe UI', Roboto, Helvetica, Arial, sans-serif" font-size="19" font-weight="bold" font-style="normal" fill="#1a1a1a" text-anchor="middle" dominant-baseline="middle">冗余的相关性地板：一旦存在相关，增加判断者也无法越过</text>
<line x1="84.0" y1="64.0" x2="84.0" y2="384.0" stroke="#1a1a1a" stroke-width="1.5"/>
<line x1="84.0" y1="384.0" x2="664.0" y2="384.0" stroke="#1a1a1a" stroke-width="1.5"/>
<line x1="79.0" y1="384.0" x2="84.0" y2="384.0" stroke="#1a1a1a" stroke-width="1"/>
<text x="72.0" y="384.0" font-family="-apple-system, 'PingFang SC', 'Hiragino Sans GB', 'Microsoft YaHei', 'Noto Sans CJK SC', 'Source Han Sans SC', 'Segoe UI', Roboto, Helvetica, Arial, sans-serif" font-size="11" font-weight="normal" font-style="normal" fill="#6b7280" text-anchor="end" dominant-baseline="middle">0.0</text>
<line x1="79.0" y1="288.0" x2="84.0" y2="288.0" stroke="#1a1a1a" stroke-width="1"/>
<text x="72.0" y="288.0" font-family="-apple-system, 'PingFang SC', 'Hiragino Sans GB', 'Microsoft YaHei', 'Noto Sans CJK SC', 'Source Han Sans SC', 'Segoe UI', Roboto, Helvetica, Arial, sans-serif" font-size="11" font-weight="normal" font-style="normal" fill="#6b7280" text-anchor="end" dominant-baseline="middle">0.3</text>
<line x1="79.0" y1="192.0" x2="84.0" y2="192.0" stroke="#1a1a1a" stroke-width="1"/>
<text x="72.0" y="192.0" font-family="-apple-system, 'PingFang SC', 'Hiragino Sans GB', 'Microsoft YaHei', 'Noto Sans CJK SC', 'Source Han Sans SC', 'Segoe UI', Roboto, Helvetica, Arial, sans-serif" font-size="11" font-weight="normal" font-style="normal" fill="#6b7280" text-anchor="end" dominant-baseline="middle">0.6</text>
<line x1="79.0" y1="64.0" x2="84.0" y2="64.0" stroke="#1a1a1a" stroke-width="1"/>
<text x="72.0" y="64.0" font-family="-apple-system, 'PingFang SC', 'Hiragino Sans GB', 'Microsoft YaHei', 'Noto Sans CJK SC', 'Source Han Sans SC', 'Segoe UI', Roboto, Helvetica, Arial, sans-serif" font-size="11" font-weight="normal" font-style="normal" fill="#6b7280" text-anchor="end" dominant-baseline="middle">1.0</text>
<polyline points="84.00,64.00 98.87,224.00 113.74,277.33 128.62,304.00 143.49,320.00 158.36,330.67 173.23,338.29 188.10,344.00 202.97,348.44 217.85,352.00 232.72,354.91 247.59,357.33 262.46,359.38 277.33,361.14 292.21,362.67 307.08,364.00 321.95,365.18 336.82,366.22 351.69,367.16 366.56,368.00 381.44,368.76 396.31,369.45 411.18,370.09 426.05,370.67 440.92,371.20 455.79,371.69 470.67,372.15 485.54,372.57 500.41,372.97 515.28,373.33 530.15,373.68 545.03,374.00 559.90,374.30 574.77,374.59 589.64,374.86 604.51,375.11 619.38,375.35 634.26,375.58 649.13,375.79 664.00,376.00" fill="none" stroke="#10b981" stroke-width="2.6"/>
<polyline points="84.00,64.00 98.87,208.00 113.74,256.00 128.62,280.00 143.49,294.40 158.36,304.00 173.23,310.86 188.10,316.00 202.97,320.00 217.85,323.20 232.72,325.82 247.59,328.00 262.46,329.85 277.33,331.43 292.21,332.80 307.08,334.00 321.95,335.06 336.82,336.00 351.69,336.84 366.56,337.60 381.44,338.29 396.31,338.91 411.18,339.48 426.05,340.00 440.92,340.48 455.79,340.92 470.67,341.33 485.54,341.71 500.41,342.07 515.28,342.40 530.15,342.71 545.03,343.00 559.90,343.27 574.77,343.53 589.64,343.77 604.51,344.00 619.38,344.22 634.26,344.42 649.13,344.62 664.00,344.80" fill="none" stroke="#d97706" stroke-width="2.6"/>
<line x1="84.0" y1="352.0" x2="664.0" y2="352.0" stroke="#d97706" stroke-width="1" stroke-dasharray="4,4"/>
<polyline points="84.00,64.00 98.87,176.00 113.74,213.33 128.62,232.00 143.49,243.20 158.36,250.67 173.23,256.00 188.10,260.00 202.97,263.11 217.85,265.60 232.72,267.64 247.59,269.33 262.46,270.77 277.33,272.00 292.21,273.07 307.08,274.00 321.95,274.82 336.82,275.56 351.69,276.21 366.56,276.80 381.44,277.33 396.31,277.82 411.18,278.26 426.05,278.67 440.92,279.04 455.79,279.38 470.67,279.70 485.54,280.00 500.41,280.28 515.28,280.53 530.15,280.77 545.03,281.00 559.90,281.21 574.77,281.41 589.64,281.60 604.51,281.78 619.38,281.95 634.26,282.11 649.13,282.26 664.00,282.40" fill="none" stroke="#ef4444" stroke-width="2.6"/>
<line x1="84.0" y1="288.0" x2="664.0" y2="288.0" stroke="#ef4444" stroke-width="1" stroke-dasharray="4,4"/>
<text x="660.0" y="370.0" font-family="-apple-system, 'PingFang SC', 'Hiragino Sans GB', 'Microsoft YaHei', 'Noto Sans CJK SC', 'Source Han Sans SC', 'Segoe UI', Roboto, Helvetica, Arial, sans-serif" font-size="12.5" font-weight="normal" font-style="normal" fill="#10b981" text-anchor="end" dominant-baseline="middle">ρ=0：→ 0</text>
<text x="660.0" y="342.0" font-family="-apple-system, 'PingFang SC', 'Hiragino Sans GB', 'Microsoft YaHei', 'Noto Sans CJK SC', 'Source Han Sans SC', 'Segoe UI', Roboto, Helvetica, Arial, sans-serif" font-size="12" font-weight="normal" font-style="normal" fill="#d97706" text-anchor="end" dominant-baseline="middle">地板 0.1</text>
<text x="660.0" y="278.0" font-family="-apple-system, 'PingFang SC', 'Hiragino Sans GB', 'Microsoft YaHei', 'Noto Sans CJK SC', 'Source Han Sans SC', 'Segoe UI', Roboto, Helvetica, Arial, sans-serif" font-size="12" font-weight="normal" font-style="normal" fill="#ef4444" text-anchor="end" dominant-baseline="middle">地板 0.3</text>
<text x="374.0" y="418.0" font-family="-apple-system, 'PingFang SC', 'Hiragino Sans GB', 'Microsoft YaHei', 'Noto Sans CJK SC', 'Source Han Sans SC', 'Segoe UI', Roboto, Helvetica, Arial, sans-serif" font-size="14" font-weight="bold" font-style="normal" fill="#1a1a1a" text-anchor="middle" dominant-baseline="middle">判断者数目 N  →</text>
<text x="44" y="224.0" font-family="-apple-system, 'PingFang SC', 'Hiragino Sans GB', 'Microsoft YaHei', 'Noto Sans CJK SC', 'Source Han Sans SC', 'Segoe UI', Roboto, Helvetica, Arial, sans-serif" font-size="13.5" font-weight="bold" fill="#1a1a1a" text-anchor="middle" transform="rotate(-90 44 224.0)">归一化方差 Var/σ²  →</text>
<text x="370.0" y="456.0" font-family="-apple-system, 'PingFang SC', 'Hiragino Sans GB', 'Microsoft YaHei', 'Noto Sans CJK SC', 'Source Han Sans SC', 'Segoe UI', Roboto, Helvetica, Arial, sans-serif" font-size="13" font-weight="normal" font-style="italic" fill="#6b7280" text-anchor="middle" dominant-baseline="middle">Var/σ² = ρ + (1−ρ)/N，N→∞ 时趋于 ρ，而非 0</text>
</svg>
